HIERARCHY
ROOT pelvis
{
  OFFSET 0 100 0
  CHANNELS 6 Xposition Yposition Zposition Zrotation Xrotation Yrotation
  JOINT pelvis_right_femur
  {
    OFFSET -10.78128 -3.44521 -0.5502486
    CHANNELS 3 Zrotation Xrotation Yrotation
    JOINT right_femur_tibia
    {
      OFFSET -0.8047443 -44.0398 -0.1307829
      CHANNELS 3 Zrotation Xrotation Yrotation
      JOINT right_tibia_foot
      {
        OFFSET 3.006224 -47.83518 -5
        CHANNELS 3 Zrotation Xrotation Yrotation
        End Site
        {
          OFFSET 0 -5 15
        }
      }
    }
  }
  JOINT pelvis_left_femur
  {
    OFFSET 10.78128 -3.44521 -0.5502486
    CHANNELS 3 Zrotation Xrotation Yrotation
    JOINT left_femur_tibia
    {
      OFFSET 0.8047443 -44.0398 -0.1307829
      CHANNELS 3 Zrotation Xrotation Yrotation
      JOINT left_tibia_foot
      {
        OFFSET -4.370144 -48.10324 -4.275266
        CHANNELS 3 Zrotation Xrotation Yrotation
        End Site
        {
          OFFSET 0 -5 15
        }
      }
    }
  }
  JOINT pelvis_spine1
  {
    OFFSET 0 6.468898 -3.129235
    CHANNELS 3 Zrotation Xrotation Yrotation
    JOINT spine1
    {
      OFFSET 0 23.15396 4.99043
      CHANNELS 3 Zrotation Xrotation Yrotation
      JOINT spine2
      {
        OFFSET 0 20.79997 -5.064912
        CHANNELS 3 Zrotation Xrotation Yrotation
        JOINT neck
        {
          OFFSET 0 14.38658 9.616178
          CHANNELS 3 Zrotation Xrotation Yrotation
          End Site
          {
            OFFSET 0 20 0
          }
        }
      }
      JOINT right_manubrium
      {
        OFFSET -5.722621 16.35077 3.967754
        CHANNELS 3 Zrotation Xrotation Yrotation
        JOINT right_clavicle
        {
          OFFSET -13.16364 1.694482 -4.693211
          CHANNELS 3 Zrotation Xrotation Yrotation
          JOINT right_humerus
          {
            OFFSET -28.5034 -0.3100689 -2.792744
            CHANNELS 3 Zrotation Xrotation Yrotation
            JOINT right_radius
            {
              OFFSET -25.15693 0.02248979 -1.271978
              CHANNELS 3 Zrotation Xrotation Yrotation
              End Site
              {
                OFFSET -15 0 0
              }
            }
          }
        }
      }
      JOINT left_manubrium
      {
        OFFSET 5.722621 16.35077 3.967754
        CHANNELS 3 Zrotation Xrotation Yrotation
        JOINT left_clavicle
        {
          OFFSET 13.16364 1.694482 -4.693211
          CHANNELS 3 Zrotation Xrotation Yrotation
          JOINT left_humerus
          {
            OFFSET 29.39168 -1.063119 -2.237045
            CHANNELS 3 Zrotation Xrotation Yrotation
            JOINT left_radius
            {
              OFFSET 24.59957 -0.9528479 0.9047498
              CHANNELS 3 Zrotation Xrotation Yrotation
              End Site
              {
                OFFSET 15 -0 -0
              }
            }
          }
        }
      }
    }
  }
}
MOTION
Frames: 23
Frame Time: 0.0416666666667
-1459.969 103.9678 2356.071 -10.52035 0.7578146 -92.59146 6.085307 3.150584 -6.398892 -0 5.742619 -0 -16.79043 3.542453 2.180872 0.6709738 -7.792535 -1.229448 -0 34.79453 -0 3.363266 -4.584786 15.97917 1.107108 -2.203274 5.361754 -0.4125455 16.43506 -5.555543 1.165431 22.33484 3.584578 2.741399 -18.64969 4.105548 -4.957026 -24.76357 12.18114 94.54841 15.50327 -14.94793 -0 0 13.89492 -26.09271 9.452471 11.42305 5.845051 -27.09572 -8.866954 -88.71338 3.796973 20.66377 0 0 -14.38519 20.25646 13.10518 -13.40793
-1466.677 103.6442 2356.171 -10.09151 0.8134526 -93.34092 6.078794 6.34827 -5.913828 -0 5.652879 -0 -16.22622 1.248896 2.319693 1.208148 -11.40639 -1.427415 -0 30.71085 -0 3.565661 -4.418591 16.8769 0.9458221 -2.200036 5.887313 -0.5184399 16.14043 -5.17451 1.132531 22.21667 3.581075 2.697424 -18.84478 4.127218 -4.718493 -25.64099 12.1572 93.16103 16.25292 -13.31437 -0 0 16.00381 -26.01021 9.37008 11.95524 5.772223 -26.21709 -8.385483 -89.65703 4.587787 22.76763 0 0 -12.7683 19.21526 13.39557 -12.01854
-1473.198 103.0465 2356.334 -9.676446 0.8450607 -94.09327 5.971002 9.228344 -5.452651 -0 5.981565 -0 -15.69665 -0.7982675 2.493184 1.61262 -14.64291 -1.718921 -0 26.33104 -0 3.851576 -4.399275 17.77715 0.751911 -2.218859 6.349684 -0.6208963 15.85491 -4.821848 1.09918 22.11058 3.599227 2.665168 -19.04301 4.169489 -4.476322 -26.4713 12.12733 91.84433 16.94873 -11.74622 -0 0 17.99894 -25.91457 9.253729 12.45486 5.711136 -25.37973 -7.934024 -90.59159 5.317843 24.75185 0 0 -11.20586 18.25651 13.67417 -10.73501
-1479.549 102.2164 2356.559 -9.342029 0.851699 -94.82444 5.764085 11.69716 -5.027938 -0 6.86344 -0 -15.18958 -2.408103 2.660536 1.856201 -17.3258 -2.065831 -0 22.13701 -0 4.146505 -4.485249 18.60379 0.5376358 -2.243742 6.721769 -0.7289884 15.59447 -4.502969 1.07632 22.03484 3.634342 2.64339 -19.19436 4.232037 -4.241562 -27.1682 12.09003 90.68667 17.53548 -10.33073 -0 0 19.73106 -25.86153 9.127337 12.90819 5.650733 -24.60681 -7.544279 -91.43261 5.96542 26.46174 0 0 -9.762576 17.38811 13.90545 -9.57437
-1485.771 101.2282 2356.836 -9.15561 0.8347318 -95.50705 5.460257 13.69087 -4.661892 -0 8.444024 -0 -14.70675 -3.393168 2.790051 1.920488 -19.30534 -2.430777 -0 18.53408 -0 4.393024 -4.639296 19.29232 0.313089 -2.262408 6.979608 -0.8545733 15.37906 -4.219747 1.073531 22.00684 3.680805 2.631324 -19.25186 4.312472 -4.030498 -27.6624 12.04225 89.77659 17.95768 -9.14421 -0 0 21.07193 -25.91113 9.006274 13.30681 5.582598 -23.92131 -7.248422 -92.09678 6.504813 27.76463 0 0 -8.480863 16.63363 14.05874 -8.573082
-1491.924 100.1801 2357.151 -9.173633 0.7969574 -96.11065 5.062702 15.17458 -4.384353 -0 10.84965 -0 -14.26564 -3.596174 2.86381 1.797447 -20.47318 -2.782415 -0 15.7861 -0 4.562817 -4.835311 19.79893 0.08516866 -2.269076 7.104848 -1.009584 15.23035 -3.971761 1.097179 22.04007 3.733029 2.629 -19.18029 4.406449 -3.86292 -27.91237 11.98035 89.19138 18.166 -8.242889 -0 0 21.93098 -26.11606 8.894417 13.647 5.503161 -23.34578 -7.075292 -92.51572 6.9037 28.56724 0 0 -7.379158 16.03352 14.11548 -7.787908
-1498.079 99.18266 2357.491 -9.430501 0.7409539 -96.60266 4.576411 16.12718 -4.227641 -0 14.15439 -0 -13.89642 -2.913563 2.878918 1.486938 -20.76289 -3.101302 -0 13.98835 -0 4.660421 -5.064008 20.1042 -0.1425893 -2.26527 7.08552 -1.202222 15.16793 -3.75911 1.149263 22.14172 3.786852 2.637407 -18.96314 4.508759 -3.758042 -27.9067 11.90155 88.9868 18.12527 -7.660642 -0 0 22.26127 -26.50866 8.785027 13.92657 5.414912 -22.90244 -7.046443 -92.64616 7.125309 28.82199 0 0 -6.460722 15.63955 14.07304 -7.288305
-1504.306 98.34753 2357.841 -9.930086 0.6674027 -96.95036 4.009836 16.51595 -4.220613 -0 18.34549 -0 -13.63648 -1.311869 2.845826 0.9936204 -20.13732 -3.38341 -0 13.08557 -0 4.717907 -5.336094 20.20999 -0.3688902 -2.258624 6.915264 -1.432747 15.20513 -3.586349 1.227065 22.31106 3.840826 2.658422 -18.60658 4.614753 -3.729727 -27.65843 11.8055 89.191 17.82224 -7.414839 -0 0 22.05374 -27.0895 8.665151 14.13957 5.326514 -22.61443 -7.173122 -92.4738 7.135073 28.52169 0 0 -5.731396 15.50566 13.94402 -7.144287
-1510.657 97.77461 2358.189 -10.63646 0.5747762 -97.12491 3.379648 16.2716 -4.382532 -0 23.26921 -0 -13.52526 1.149505 2.785425 0.3284268 -18.57937 -3.640024 -0 12.91344 -0 4.784339 -5.682085 20.13344 -0.5920073 -2.260618 6.593575 -1.68841 15.34451 -3.466952 1.322824 22.53758 3.897018 2.69439 -18.14333 4.721245 -3.781847 -27.19802 11.69583 89.79875 17.27499 -7.516047 -0 0 21.32994 -27.81512 8.522229 14.2702 5.252536 -22.50772 -7.45259 -92.01459 6.912174 27.69279 0 0 -5.22158 15.67707 13.75321 -7.411693
-1517.156 97.53592 2358.526 -11.46053 0.462058 -97.10884 2.720304 15.28006 -4.715641 -0 28.54085 -0 -13.59974 4.273277 2.7261 -0.4809055 -16.10817 -3.893868 -0 13.23948 -0 4.913555 -6.146197 19.90313 -0.8053825 -2.284109 6.130441 -1.937385 15.57257 -3.427087 1.422782 22.79749 3.960839 2.747197 -17.63912 4.826108 -3.90413 -26.5726 11.58178 90.76007 16.54622 -7.974462 -0 0 20.14581 -28.58326 8.351643 14.28848 5.213139 -22.61141 -7.861641 -91.31827 6.46593 26.39958 0 0 -5.005273 16.17718 13.53564 -8.113905
-1523.789 97.65408 2358.844 -12.2529 0.335446 -96.90683 2.094997 13.41318 -5.197265 -0 33.46069 -0 -13.88835 7.677596 2.699106 -1.372524 -12.82811 -4.16941 -0 13.81329 -0 5.14884 -6.767761 19.55718 -0.9922407 -2.340305 5.555374 -2.126023 15.85617 -3.504689 1.506821 23.0508 4.03872 2.816719 -17.19505 4.926035 -4.071174 -25.85076 11.4791 91.9685 15.75097 -8.797334 -0 0 18.60584 -29.22832 8.163404 14.15265 5.232009 -22.9534 -8.350257 -90.47077 5.850311 24.75792 0 0 -5.202074 16.99344 13.33442 -9.22252
-1530.506 98.08466 2359.133 -12.83298 0.2158352 -96.55398 1.594225 10.60947 -5.778961 -0 37.08298 -0 -14.40204 10.83401 2.729109 -2.243483 -8.97445 -4.475237 -0 14.45951 -0 5.50293 -7.547865 19.13584 -1.123205 -2.434591 4.922317 -2.190088 16.14904 -3.737496 1.552393 23.24728 4.132736 2.899297 -16.92705 5.013127 -4.250731 -25.11975 11.40776 93.27441 15.03346 -9.976675 -0 0 16.8626 -29.5585 7.982832 13.82442 5.329368 -23.54987 -8.847566 -89.58054 5.156029 22.93321 0 0 -5.941568 18.07272 13.19125 -10.65347
-1537.243 98.72144 2359.374 -13.06798 0.1375248 -96.1123 1.306397 6.959755 -6.402576 -0 38.56258 -0 -15.12941 13.26312 2.824092 -2.977594 -4.879735 -4.78786 -0 15.17897 -0 5.94672 -8.424442 18.66587 -1.163756 -2.563618 4.296866 -2.084204 16.41314 -4.141318 1.544024 23.34618 4.235209 2.988014 -16.91564 5.073661 -4.422262 -24.46181 11.38484 94.54295 14.5007 -11.47482 -0 0 15.07338 -29.44438 7.838819 13.29252 5.511431 -24.39456 -9.289833 -88.74195 4.46339 21.09562 0 0 -7.29099 19.34206 13.12679 -12.30093
-1543.946 99.43132 2359.541 -12.94205 0.1332825 -95.65432 1.273957 2.710055 -7.02499 -0 37.57313 -0 -16.04329 14.76127 2.976827 -3.498183 -0.8547751 -5.057976 -0 16.12527 -0 6.426865 -9.29252 18.15315 -1.090999 -2.717799 3.729884 -1.807811 16.63883 -4.696235 1.480982 23.33611 4.330125 3.075459 -17.16486 5.092493 -4.589947 -23.9256 11.41697 95.71392 14.1637 -13.21948 -0 0 13.34228 -28.89062 7.745254 12.58511 5.765763 -25.45637 -9.651089 -88.00422 3.791117 19.36106 0 0 -9.199156 20.74396 13.12671 -14.08938
-1550.587 100.097 2359.604 -12.54404 0.21814 -95.24621 1.477949 -1.807879 -7.623272 -0 34.39665 -0 -17.10292 15.42181 3.172493 -3.792288 2.884312 -5.235542 -0 17.4619 -0 6.891882 -10.05101 17.59544 -0.9051712 -2.885341 3.245731 -1.402199 16.8402 -5.352575 1.375748 23.23529 4.401022 3.155792 -17.61088 5.060408 -4.772951 -23.52116 11.49871 96.79299 13.95325 -15.10683 -0 0 11.71449 -28.01868 7.696601 11.76181 6.066001 -26.67954 -9.942093 -87.37762 3.10639 17.78237 0 0 -11.50475 22.23715 13.15029 -15.97375
-1557.167 100.6447 2359.537 -12.00931 0.3843927 -94.93854 1.860941 -6.212827 -8.175292 -0 29.71031 -0 -18.23285 15.48172 3.383626 -3.889958 6.171328 -5.280856 -0 19.29658 -0 7.285348 -10.61781 16.99517 -0.6270177 -3.049551 2.854561 -0.9312555 17.03264 -6.042084 1.248792 23.07843 4.436405 3.22338 -18.15355 4.978338 -4.983269 -23.23028 11.61628 97.79139 13.78321 -17.00147 -0 0 10.21613 -27.00518 7.684514 10.90251 6.375765 -27.97459 -10.18423 -86.85866 2.385218 16.38408 0 0 -13.97717 23.74889 13.15073 -17.87321
-1563.709 101.0555 2359.32 -11.48205 0.6052009 -94.76222 2.355266 -10.07122 -8.643904 -0 24.3808 -0 -19.30417 15.19776 3.562181 -3.83691 8.824803 -5.158137 -0 21.71699 -0 7.524501 -10.9168 16.35999 -0.2896531 -3.183886 2.566708 -0.4685966 17.21816 -6.68343 1.125699 22.90713 4.430103 3.270914 -18.67506 4.857228 -5.212992 -23.01353 11.75131 98.68552 13.59375 -18.73806 -0 0 8.883361 -26.04333 7.715405 10.1016 6.649006 -29.21121 -10.39101 -86.44252 1.654591 15.18802 0 0 -16.34682 25.13559 13.09306 -19.61794
-1570.262 101.3642 2358.951 -11.09187 0.8434318 -94.72758 2.89959 -12.93729 -8.981377 -0 19.2999 -0 -20.15383 14.78834 3.649461 -3.67799 10.64378 -4.836805 -0 24.7862 -0 7.510519 -10.87812 15.70433 0.0686955 -3.255372 2.395976 -0.08704136 17.38509 -7.192018 1.033107 22.76219 4.380619 3.290393 -19.05865 4.714784 -5.436683 -22.82236 11.88422 99.41678 13.36455 -20.14143 -0 0 7.768413 -25.31379 7.811207 9.456493 6.836408 -30.23535 -10.56428 -86.12458 0.990027 14.22181 0 0 -18.3399 26.20214 12.96772 -20.9716
-1576.887 101.6421 2358.439 -10.91673 1.065616 -94.82834 3.449287 -14.47092 -9.146435 -0 15.14955 -0 -20.64139 14.37371 3.600544 -3.442021 11.45755 -4.312821 -0 28.44643 -0 7.177663 -10.4655 15.06032 0.4124799 -3.238335 2.355764 0.1604413 17.51394 -7.502615 0.9899934 22.67124 4.291679 3.276611 -19.22565 4.570013 -5.622184 -22.62539 11.99891 99.91256 13.11863 -21.0706 -0 0 6.938369 -24.93416 7.992938 9.042958 6.902757 -30.91464 -10.69393 -85.90388 0.4867447 13.52613 0 0 -19.74183 26.7751 12.7954 -21.71967
-1583.637 101.964 2357.808 -10.94626 1.254377 -95.05048 3.980873 -14.56275 -9.119914 -0 12.17957 -0 -20.70757 13.92238 3.406146 -3.130115 11.18442 -3.634432 -0 32.40615 -0 6.545278 -9.71081 14.48835 0.7154137 -3.129456 2.453961 0.2603609 17.58311 -7.593197 0.9987121 22.63672 4.173117 3.230356 -19.17307 4.437887 -5.74201 -22.4355 12.08705 100.1095 12.91967 -21.46159 -0 0 6.47241 -24.90921 8.259384 8.890181 6.845229 -31.18573 -10.75731 -85.78962 0.2275762 13.16156 0 0 -20.46028 26.77961 12.61798 -21.76252
-1590.529 102.3724 2357.087 -11.08826 1.409619 -95.38072 4.484521 -13.35454 -8.91174 -0 10.21134 -0 -20.39374 13.27809 3.100542 -2.722821 9.857748 -2.899914 -0 36.14018 -0 5.725003 -8.720714 14.06943 0.9615356 -2.951608 2.688899 0.2392258 17.57551 -7.48832 1.044279 22.63672 4.039719 3.158696 -18.97345 4.326784 -5.781105 -22.31197 12.14815 99.96987 12.8497 -21.33301 -0 0 6.44917 -25.13577 8.578835 8.977075 6.6949 -31.0675 -10.72581 -85.8031 0.2583358 13.20079 0 0 -20.53038 26.2641 12.48058 -21.14792
-1597.543 102.8573 2356.307 -11.2223 1.539098 -95.8095 4.949779 -11.14027 -8.55727 -0 8.877642 -0 -19.81226 12.26957 2.751693 -2.205141 7.609685 -2.221284 -0 39.03992 -0 4.875312 -7.643945 13.87858 1.141569 -2.743408 3.047356 0.142664 17.48499 -7.239005 1.103269 22.63992 3.907588 3.072318 -18.7323 4.239324 -5.739069 -22.33216 12.18605 99.48932 12.97244 -20.75329 -0 0 6.922343 -25.46655 8.900532 9.252311 6.498876 -30.63434 -10.57904 -85.97116 0.5762578 13.70268 0 0 -20.05935 25.36225 12.41647 -20.03017
-1604.627 103.3606 2355.499 -11.25511 1.648793 -96.32887 5.358716 -8.245243 -8.105126 -0 7.869308 -0 -19.09487 10.81101 2.437157 -1.586992 4.635141 -1.684914 -0 40.60969 -0 4.142604 -6.623833 13.95881 1.250018 -2.543907 3.505479 0.01249044 17.31857 -6.898677 1.154519 22.62138 3.790256 2.982129 -18.54023 4.17484 -5.627149 -22.55561 12.20534 98.69617 13.30801 -19.80484 -0 0 7.898034 -25.77731 9.174473 9.658649 6.299526 -29.97797 -10.31535 -86.3157 1.134466 14.68442 0 0 -19.16725 24.23261 12.44171 -18.60047
